<svg height='100px' width='100px'  fill="#ff6600" xmlns="http://www.w3.org/2000/svg" xmlns:xlink="http://www.w3.org/1999/xlink" version="1.1" x="0px" y="0px" viewBox="0 0 100 100" enable-background="new 0 0 100 100" xml:space="preserve"><g><path d="M89.375,81.635H10.628C7.524,81.635,5,79.11,5,76.006V31.179c0-3.104,2.524-5.629,5.628-5.629h78.749   c3.101,0,5.623,2.525,5.623,5.629v44.827C95,79.11,92.478,81.635,89.375,81.635z M10.628,27.025c-2.29,0-4.153,1.863-4.153,4.154   v44.827c0,2.29,1.863,4.153,4.153,4.153h78.749c2.288,0,4.147-1.863,4.147-4.153V31.179c0-2.291-1.859-4.154-4.147-4.154H10.628z    M62.646,74.314c-10.849,0-19.675-8.822-19.675-19.667c0-10.846,8.826-19.672,19.675-19.672c10.845,0,19.67,8.825,19.67,19.672   C82.316,65.492,73.493,74.314,62.646,74.314z M62.646,36.451c-10.034,0-18.199,8.163-18.199,18.196   c0,10.03,8.165,18.191,18.199,18.191s18.194-8.161,18.194-18.191C80.841,44.613,72.681,36.451,62.646,36.451z M62.646,70.023   c-8.478,0-15.375-6.899-15.375-15.376c0-8.479,6.898-15.376,15.375-15.376c8.476,0,15.373,6.897,15.373,15.376h-1.476   c0-7.665-6.234-13.9-13.897-13.9c-7.665,0-13.9,6.235-13.9,13.9s6.235,13.9,13.9,13.9V70.023z M62.645,66.103   c-6.314,0-11.453-5.139-11.453-11.455h1.475c0,5.504,4.479,9.979,9.979,9.979c5.502,0,9.979-4.478,9.979-9.979   c0-5.501-4.477-9.977-9.979-9.977v-1.476c6.314,0,11.454,5.138,11.454,11.452C74.099,60.964,68.959,66.103,62.645,66.103z    M34.451,40.192H12.282v-7.879h22.168V40.192z M13.757,38.717h19.218v-4.928H13.757V38.717z M84.267,24.183h-1.476v-4.342H70.183   v4.342h-1.475v-5.817h15.559V24.183z"></path></g></svg>