<svg height='100px' width='100px'  fill="#ffffff" xmlns="http://www.w3.org/2000/svg" viewBox="0 0 32 32" x="0px" y="0px"><title>Copy, Copyfile</title><g data-name="File, Paste, Copy"><path d="M9,22H5V5H19a1,1,0,0,0,0-2H4A1,1,0,0,0,3,4V23a1,1,0,0,0,1,1H9a1,1,0,0,0,0-2Z"></path><path d="M28,8H13a1,1,0,0,0-1,1V28a1,1,0,0,0,1,1H28a1,1,0,0,0,1-1V9A1,1,0,0,0,28,8ZM27,27H14V10H27Z"></path><path d="M18,18h5a1,1,0,0,0,0-2H18a1,1,0,0,0,0,2Z"></path><path d="M18,22h5a1,1,0,0,0,0-2H18a1,1,0,0,0,0,2Z"></path></g></svg>